<svg width="20" height="16" viewBox="0 0 20 16" fill="none" xmlns="http://www.w3.org/2000/svg">
<g clip-path="url(#clip0_237_1538)">
<path d="M7 0C8.06087 0 9.07828 0.421427 9.82843 1.17157C10.5786 1.92172 11 2.93913 11 4C11 5.06087 10.5786 6.07828 9.82843 6.82843C9.07828 7.57857 8.06087 8 7 8C5.93913 8 4.92172 7.57857 4.17157 6.82843C3.42143 6.07828 3 5.06087 3 4C3 2.93913 3.42143 1.92172 4.17157 1.17157C4.92172 0.421427 5.93913 0 7 0ZM5.57188 9.5H8.42813C9.07188 9.5 9.69063 9.60938 10.2656 9.80937C10.0938 10.3438 10 10.9094 10 11.5C10 13.3594 10.9219 15.0031 12.3375 16H0.928125C0.415625 16 0 15.5844 0 15.0719C0 11.9937 2.49375 9.5 5.57188 9.5ZM11 11.5C11 10.3065 11.4741 9.16193 12.318 8.31802C13.1619 7.47411 14.3065 7 15.5 7C16.6935 7 17.8381 7.47411 18.682 8.31802C19.5259 9.16193 20 10.3065 20 11.5C20 12.6935 19.5259 13.8381 18.682 14.682C17.8381 15.5259 16.6935 16 15.5 16C14.3065 16 13.1619 15.5259 12.318 14.682C11.4741 13.8381 11 12.6935 11 11.5ZM15.5 9C15.225 9 15 9.225 15 9.5V11.5C15 11.775 15.225 12 15.5 12H17C17.275 12 17.5 11.775 17.5 11.5C17.5 11.225 17.275 11 17 11H16V9.5C16 9.225 15.775 9 15.5 9Z" fill="#22989F"/>
</g>
<defs>
<clipPath id="clip0_237_1538">
<path d="M0 0H20V16H0V0Z" fill="white"/>
</clipPath>
</defs>
</svg>
