<svg width="21" height="20" viewBox="0 0 21 20" fill="none" xmlns="http://www.w3.org/2000/svg">
<g clip-path="url(#clip0_183_1231)">
<path d="M19.7355 11.3851L18.073 5.6884C17.5857 4.01951 16.5267 2.55364 15.0642 1.52379C13.6017 0.493945 11.8198 -0.0407771 10.0016 0.00462298C8.18336 0.0500231 6.43327 0.67294 5.02946 1.77436C3.62566 2.87578 2.64871 4.39249 2.25391 6.0834L0.966783 11.5959C0.824609 12.205 0.827896 12.8368 0.976401 13.4445C1.12491 14.0522 1.41484 14.6205 1.82479 15.1072C2.23475 15.5939 2.75425 15.9868 3.34495 16.2567C3.93566 16.5266 4.58248 16.6668 5.23766 16.6667H6.21241C6.41323 17.6086 6.9498 18.4555 7.73118 19.0637C8.51257 19.672 9.49072 20.0042 10.4999 20.0042C11.5091 20.0042 12.4872 19.672 13.2686 19.0637C14.05 18.4555 14.5866 17.6086 14.7874 16.6667H15.5207C16.1951 16.6668 16.8605 16.5183 17.4647 16.2329C18.0689 15.9476 18.5957 15.533 19.0039 15.0216C19.412 14.5103 19.6905 13.9159 19.8176 13.2851C19.9447 12.6543 19.9169 12.004 19.7364 11.3851H19.7355ZM10.4999 18.3334C9.95893 18.3313 9.43186 18.17 8.9908 17.8717C8.54974 17.5733 8.21623 17.1525 8.03591 16.6667H12.9639C12.7836 17.1525 12.4501 17.5733 12.009 17.8717C11.568 18.17 11.0409 18.3313 10.4999 18.3334ZM17.6102 14.0126C17.3663 14.3206 17.0504 14.5703 16.6876 14.7417C16.3247 14.9131 15.9248 15.0016 15.5198 15.0001H5.23766C4.84459 15 4.45656 14.9159 4.10221 14.7539C3.74785 14.5919 3.43621 14.3562 3.1903 14.0641C2.94439 13.7721 2.77047 13.4312 2.6814 13.0666C2.59232 12.702 2.59036 12.323 2.67566 11.9576L3.96191 6.44423C4.27197 5.11607 5.0393 3.92474 6.14193 3.05961C7.24456 2.19448 8.6192 1.70521 10.0473 1.66958C11.4755 1.63395 12.8751 2.054 14.0238 2.86296C15.1725 3.67192 16.0043 4.82336 16.3869 6.13423L18.0494 11.8309C18.1593 12.202 18.1768 12.5925 18.1005 12.9712C18.0243 13.3499 17.8564 13.7064 17.6102 14.0126Z" fill="#434343"/>
</g>
<defs>
<clipPath id="clip0_183_1231">
<rect width="21" height="20" fill="white"/>
</clipPath>
</defs>
</svg>
