<svg width="18" height="16" viewBox="0 0 18 16" fill="none" xmlns="http://www.w3.org/2000/svg">
<g clip-path="url(#clip0_183_1223)">
<path d="M17.1125 3.24375L15.3219 0.409375C15.1625 0.15625 14.8781 0 14.575 0H3.42501C3.12188 0 2.83751 0.15625 2.67813 0.409375L0.884382 3.24375C-0.0406178 4.70625 0.778132 6.74062 2.50626 6.975C2.63126 6.99062 2.75938 7 2.88438 7C3.70001 7 4.42501 6.64375 4.92188 6.09375C5.41876 6.64375 6.14376 7 6.95938 7C7.77501 7 8.50001 6.64375 8.99688 6.09375C9.49376 6.64375 10.2188 7 11.0344 7C11.8531 7 12.575 6.64375 13.0719 6.09375C13.5719 6.64375 14.2938 7 15.1094 7C15.2375 7 15.3625 6.99062 15.4875 6.975C17.2219 6.74375 18.0438 4.70938 17.1156 3.24375H17.1125ZM15.6156 7.96562H15.6125C15.4469 7.9875 15.2781 8 15.1063 8C14.7188 8 14.3469 7.94062 14 7.83437V12H4.00001V7.83125C3.65001 7.94063 3.27501 8 2.88751 8C2.71563 8 2.54376 7.9875 2.37813 7.96562H2.37501C2.24688 7.94687 2.12188 7.925 2.00001 7.89375V12V14C2.00001 15.1031 2.89688 16 4.00001 16H14C15.1031 16 16 15.1031 16 14V12V7.89375C15.875 7.925 15.75 7.95 15.6156 7.96562Z" fill="white"/>
</g>
<defs>
<clipPath id="clip0_183_1223">
<path d="M0 0H18V16H0V0Z" fill="white"/>
</clipPath>
</defs>
</svg>
