<svg width="13" height="16" viewBox="0 0 13 16" fill="none" xmlns="http://www.w3.org/2000/svg">
<path d="M2 14V2C2 1.725 2.225 1.5 2.5 1.5H7.5V4C7.5 4.55312 7.94688 5 8.5 5H11V14C11 14.275 10.775 14.5 10.5 14.5H2.5C2.225 14.5 2 14.275 2 14ZM2.5 0C1.39688 0 0.5 0.896875 0.5 2V14C0.5 15.1031 1.39688 16 2.5 16H10.5C11.6031 16 12.5 15.1031 12.5 14V4.82812C12.5 4.29688 12.2906 3.7875 11.9156 3.4125L9.08438 0.584375C8.70938 0.209375 8.20312 0 7.67188 0H2.5ZM5.34062 7.29063C5.0875 6.9625 4.61562 6.90625 4.2875 7.15938C3.95937 7.4125 3.90313 7.88437 4.15625 8.2125L5.55 10L4.15937 11.7906C3.90625 12.1187 3.9625 12.5875 4.29063 12.8438C4.61875 13.1 5.0875 13.0406 5.34375 12.7125L6.5 11.2219L7.65938 12.7094C7.9125 13.0375 8.38437 13.0938 8.7125 12.8406C9.04062 12.5875 9.09688 12.1156 8.84375 11.7875L7.45 10L8.84062 8.20938C9.09375 7.88125 9.0375 7.4125 8.70938 7.15625C8.38125 6.9 7.9125 6.95937 7.65625 7.2875L6.5 8.77812L5.34062 7.29063Z" fill="#9CA3AF"/>
</svg>
