<svg width="18" height="20" viewBox="0 0 18 20" fill="none" xmlns="http://www.w3.org/2000/svg">
<g clip-path="url(#clip0_228_283)">

<path d="M7.5 0C8.19141 0 8.75 0.558594 8.75 1.25V5.625H6.25V1.25C6.25 0.558594 6.80859 0 7.5 0ZM2.5 2.5C2.5 1.80859 3.05859 1.25 3.75 1.25C4.44141 1.25 5 1.80859 5 2.5V5.625H2.5V2.5ZM10 2.5C10 1.80859 10.5586 1.25 11.25 1.25C11.9414 1.25 12.5 1.80859 12.5 2.5V6.25C12.5 6.94141 11.9414 7.5 11.25 7.5C10.5586 7.5 10 6.94141 10 6.25V2.5ZM13.75 5C13.75 4.30859 14.3086 3.75 15 3.75C15.6914 3.75 16.25 4.30859 16.25 5V7.5C16.25 8.19141 15.6914 8.75 15 8.75C14.3086 8.75 13.75 8.19141 13.75 7.5V5ZM10 8.4375V8.41406C10.3672 8.625 10.793 8.75 11.25 8.75C11.7656 8.75 12.2422 8.59375 12.6406 8.32812C12.9805 9.30078 13.9102 10 15 10C15.457 10 15.8828 9.87891 16.25 9.66406V10C16.25 12.043 15.2695 13.8594 13.75 15V18.75C13.75 19.4414 13.1914 20 12.5 20H6.25C5.55859 20 5 19.4414 5 18.75V15.6875C4.32422 15.3789 3.70312 14.9531 3.16797 14.418L2.71484 13.9648C1.77734 13.0273 1.25 11.7539 1.25 10.4297V9.375C1.25 7.99609 2.37109 6.875 3.75 6.875H7.1875C8.05078 6.875 8.75 7.57422 8.75 8.4375C8.75 9.30078 8.05078 10 7.1875 10H5C4.65625 10 4.375 10.2812 4.375 10.625C4.375 10.9688 4.65625 11.25 5 11.25H7.1875C8.74219 11.25 10 9.99219 10 8.4375Z" fill="#EF4444"/>
</g>
<defs>
<clipPath id="clip0_228_283">
<rect width="17.5" height="20" fill="white"/>
</clipPath>
</defs>
</svg>
