<svg width="24" height="20" viewBox="0 0 24 20" fill="none" xmlns="http://www.w3.org/2000/svg">
<!-- <path d="M23.25 20H0.75V0H23.25V20Z" stroke="#E5E7EB"/> -->
<g clip-path="url(#clip0_199_1180)">
<path d="M15.75 18.75H17.625C18.0703 18.75 18.4805 18.5156 18.7031 18.1289L23.0781 10.6289C23.3047 10.2422 23.3047 9.76562 23.082 9.375C22.8594 8.98438 22.4492 8.75 22 8.75H6.375C5.92969 8.75 5.51953 8.98438 5.29688 9.37109L2.625 13.9492V3.75C2.625 3.40625 2.90625 3.125 3.25 3.125H7.83984C8.00391 3.125 8.16406 3.19141 8.28125 3.30859L9.31641 4.34375C10.1367 5.16406 11.25 5.625 12.4102 5.625H17C17.3438 5.625 17.625 5.90625 17.625 6.25V7.5H19.5V6.25C19.5 4.87109 18.3789 3.75 17 3.75H12.4102C11.7461 3.75 11.1094 3.48828 10.6406 3.01953L9.60547 1.98047C9.13672 1.51172 8.5 1.25 7.83594 1.25H3.25C1.87109 1.25 0.75 2.37109 0.75 3.75V16.25C0.75 17.6289 1.87109 18.75 3.25 18.75H4.17578H15.75Z" fill="#209A9F"/>
</g>
<defs>
<clipPath id="clip0_199_1180">
<path d="M0.75 0H23.25V20H0.75V0Z" fill="white"/>
</clipPath>
</defs>
</svg>
