<svg width="25" height="20" viewBox="0 0 25 20" fill="none" xmlns="http://www.w3.org/2000/svg">
<g clip-path="url(#clip0_228_343)">

<path d="M12.6328 3.32812L8.85156 6.39063C8.22266 6.89844 8.10156 7.8125 8.57812 8.46484C9.08203 9.16016 10.0625 9.29688 10.7383 8.76953L14.6172 5.75391C14.8906 5.54297 15.2812 5.58984 15.4961 5.86328C15.7109 6.13672 15.6602 6.52734 15.3867 6.74219L14.5703 7.375L20 12.375V5H19.9727L19.8203 4.90234L16.9844 3.08594C16.3867 2.70312 15.6875 2.5 14.9766 2.5C14.125 2.5 13.2969 2.79297 12.6328 3.32812ZM13.5234 8.1875L11.5039 9.75781C10.2734 10.7188 8.48828 10.4688 7.56641 9.20312C6.69922 8.01172 6.91797 6.34766 8.0625 5.42188L11.3125 2.79297C10.8594 2.60156 10.3711 2.50391 9.875 2.50391C9.14062 2.5 8.42578 2.71875 7.8125 3.125L5 5V13.75H6.10156L9.67188 17.0078C10.4375 17.707 11.6211 17.6523 12.3203 16.8867C12.5352 16.6484 12.6797 16.3711 12.7539 16.082L13.418 16.6914C14.1797 17.3906 15.3672 17.3398 16.0664 16.5781C16.2422 16.3867 16.3711 16.1641 16.4531 15.9336C17.2109 16.4414 18.2422 16.3359 18.8789 15.6406C19.5781 14.8789 19.5273 13.6914 18.7656 12.9922L13.5234 8.1875ZM0.625 5C0.28125 5 0 5.28125 0 5.625V13.75C0 14.4414 0.558594 15 1.25 15H2.5C3.19141 15 3.75 14.4414 3.75 13.75V5H0.625ZM1.875 12.5C2.04076 12.5 2.19973 12.5658 2.31694 12.6831C2.43415 12.8003 2.5 12.9592 2.5 13.125C2.5 13.2908 2.43415 13.4497 2.31694 13.5669C2.19973 13.6842 2.04076 13.75 1.875 13.75C1.70924 13.75 1.55027 13.6842 1.43306 13.5669C1.31585 13.4497 1.25 13.2908 1.25 13.125C1.25 12.9592 1.31585 12.8003 1.43306 12.6831C1.55027 12.5658 1.70924 12.5 1.875 12.5ZM21.25 5V13.75C21.25 14.4414 21.8086 15 22.5 15H23.75C24.4414 15 25 14.4414 25 13.75V5.625C25 5.28125 24.7188 5 24.375 5H21.25ZM22.5 13.125C22.5 12.9592 22.5658 12.8003 22.6831 12.6831C22.8003 12.5658 22.9592 12.5 23.125 12.5C23.2908 12.5 23.4497 12.5658 23.5669 12.6831C23.6842 12.8003 23.75 12.9592 23.75 13.125C23.75 13.2908 23.6842 13.4497 23.5669 13.5669C23.4497 13.6842 23.2908 13.75 23.125 13.75C22.9592 13.75 22.8003 13.6842 22.6831 13.5669C22.5658 13.4497 22.5 13.2908 22.5 13.125Z" fill="#12B981"/>
</g>
<defs>
<clipPath id="clip0_228_343">
<rect width="25" height="20" fill="white"/>
</clipPath>
</defs>
</svg>
