<svg width="23" height="20" viewBox="0 0 23 20" fill="none" xmlns="http://www.w3.org/2000/svg">
<path d="M22.6484 9.98047C22.6484 10.6836 22.0625 11.2344 21.3984 11.2344H20.1484L20.1758 17.4922C20.1758 17.5977 20.168 17.7031 20.1562 17.8086V18.4375C20.1562 19.3008 19.457 20 18.5938 20H17.9688C17.9258 20 17.8828 20 17.8398 19.9961C17.7852 20 17.7305 20 17.6758 20H16.4062H15.4688C14.6055 20 13.9062 19.3008 13.9062 18.4375V17.5V15C13.9062 14.3086 13.3477 13.75 12.6562 13.75H10.1562C9.46484 13.75 8.90625 14.3086 8.90625 15V17.5V18.4375C8.90625 19.3008 8.20703 20 7.34375 20H6.40625H5.16016C5.10156 20 5.04297 19.9961 4.98438 19.9922C4.9375 19.9961 4.89062 20 4.84375 20H4.21875C3.35547 20 2.65625 19.3008 2.65625 18.4375V14.0625C2.65625 14.0273 2.65625 13.9883 2.66016 13.9531V11.2344H1.40625C0.703125 11.2344 0.15625 10.6875 0.15625 9.98047C0.15625 9.62891 0.273438 9.31641 0.546875 9.04297L10.5625 0.3125C10.8359 0.0390625 11.1484 0 11.4219 0C11.6953 0 12.0078 0.078125 12.2422 0.273438L22.2188 9.04297C22.5312 9.31641 22.6875 9.62891 22.6484 9.98047Z" fill="#9CA3AF"/>
</svg>
