<svg width="21" height="16" viewBox="0 0 21 16" fill="none" xmlns="http://www.w3.org/2000/svg">
<g clip-path="url(#clip0_183_3320)">
<path d="M4.97998 0C5.64302 0 6.27891 0.263392 6.74775 0.732233C7.21659 1.20107 7.47998 1.83696 7.47998 2.5C7.47998 3.16304 7.21659 3.79893 6.74775 4.26777C6.27891 4.73661 5.64302 5 4.97998 5C4.31694 5 3.68105 4.73661 3.21221 4.26777C2.74337 3.79893 2.47998 3.16304 2.47998 2.5C2.47998 1.83696 2.74337 1.20107 3.21221 0.732233C3.68105 0.263392 4.31694 0 4.97998 0ZM16.48 0C17.143 0 17.7789 0.263392 18.2477 0.732233C18.7166 1.20107 18.98 1.83696 18.98 2.5C18.98 3.16304 18.7166 3.79893 18.2477 4.26777C17.7789 4.73661 17.143 5 16.48 5C15.8169 5 15.1811 4.73661 14.7122 4.26777C14.2434 3.79893 13.98 3.16304 13.98 2.5C13.98 1.83696 14.2434 1.20107 14.7122 0.732233C15.1811 0.263392 15.8169 0 16.48 0ZM0.47998 9.33438C0.47998 7.49375 1.97373 6 3.81436 6H5.14873C5.64561 6 6.11748 6.10938 6.54248 6.30312C6.50186 6.52812 6.48311 6.7625 6.48311 7C6.48311 8.19375 7.00811 9.26562 7.83623 10C7.82998 10 7.82373 10 7.81436 10H1.14561C0.77998 10 0.47998 9.7 0.47998 9.33438ZM13.1456 10C13.1394 10 13.1331 10 13.1237 10C13.955 9.26562 14.4769 8.19375 14.4769 7C14.4769 6.7625 14.455 6.53125 14.4175 6.30312C14.8425 6.10625 15.3144 6 15.8112 6H17.1456C18.9862 6 20.48 7.49375 20.48 9.33438C20.48 9.70312 20.18 10 19.8144 10H13.1456ZM7.47998 7C7.47998 6.20435 7.79605 5.44129 8.35866 4.87868C8.92127 4.31607 9.68433 4 10.48 4C11.2756 4 12.0387 4.31607 12.6013 4.87868C13.1639 5.44129 13.48 6.20435 13.48 7C13.48 7.79565 13.1639 8.55871 12.6013 9.12132C12.0387 9.68393 11.2756 10 10.48 10C9.68433 10 8.92127 9.68393 8.35866 9.12132C7.79605 8.55871 7.47998 7.79565 7.47998 7ZM4.47998 15.1656C4.47998 12.8656 6.3456 11 8.64561 11H12.3144C14.6144 11 16.48 12.8656 16.48 15.1656C16.48 15.625 16.1081 16 15.6456 16H5.31436C4.85498 16 4.47998 15.6281 4.47998 15.1656Z" fill="#4B5563"/>
</g>
<defs>
<clipPath id="clip0_183_3320">
<path d="M0.47998 0H20.48V16H0.47998V0Z" fill="white"/>
</clipPath>
</defs>
</svg>
