<svg width="75" height="60" viewBox="0 0 75 60" fill="none" xmlns="http://www.w3.org/2000/svg">
<path d="M26.25 0C30.2282 0 34.0436 1.58035 36.8566 4.3934C39.6696 7.20644 41.25 11.0218 41.25 15C41.25 18.9782 39.6696 22.7936 36.8566 25.6066C34.0436 28.4196 30.2282 30 26.25 30C22.2718 30 18.4564 28.4196 15.6434 25.6066C12.8304 22.7936 11.25 18.9782 11.25 15C11.25 11.0218 12.8304 7.20644 15.6434 4.3934C18.4564 1.58035 22.2718 0 26.25 0ZM20.8945 35.625H31.6055C34.0195 35.625 36.3398 36.0352 38.4961 36.7852C37.8516 38.7891 37.5 40.9102 37.5 43.125C37.5 50.0977 40.957 56.2617 46.2656 60H3.48047C1.55859 60 0 58.4414 0 56.5195C0 44.9766 9.35156 35.625 20.8945 35.625ZM41.25 43.125C41.25 38.6495 43.0279 34.3573 46.1926 31.1926C49.3573 28.0279 53.6495 26.25 58.125 26.25C62.6005 26.25 66.8927 28.0279 70.0574 31.1926C73.2221 34.3573 75 38.6495 75 43.125C75 47.6005 73.2221 51.8927 70.0574 55.0574C66.8927 58.2221 62.6005 60 58.125 60C53.6495 60 49.3573 58.2221 46.1926 55.0574C43.0279 51.8927 41.25 47.6005 41.25 43.125ZM58.125 33.75C57.0938 33.75 56.25 34.5938 56.25 35.625V43.125C56.25 44.1562 57.0938 45 58.125 45H63.75C64.7812 45 65.625 44.1562 65.625 43.125C65.625 42.0938 64.7812 41.25 63.75 41.25H60V35.625C60 34.5938 59.1562 33.75 58.125 33.75Z" fill="#209A9F"/>
</svg>
