<svg width="60" height="54" viewBox="0 0 60 54" fill="none" xmlns="http://www.w3.org/2000/svg">
<path d="M7.5 4.5C7.5 2.42578 5.82422 0.75 3.75 0.75C1.67578 0.75 0 2.42578 0 4.5V43.875C0 49.0547 4.19531 53.25 9.375 53.25H56.25C58.3242 53.25 60 51.5742 60 49.5C60 47.4258 58.3242 45.75 56.25 45.75H9.375C8.34375 45.75 7.5 44.9062 7.5 43.875V4.5ZM55.1484 14.6484C56.6133 13.1836 56.6133 10.8047 55.1484 9.33984C53.6836 7.875 51.3047 7.875 49.8398 9.33984L37.5 21.6914L30.7734 14.9648C29.3086 13.5 26.9297 13.5 25.4648 14.9648L12.3398 28.0898C10.875 29.5547 10.875 31.9336 12.3398 33.3984C13.8047 34.8633 16.1836 34.8633 17.6484 33.3984L28.125 22.9336L34.8516 29.6602C36.3164 31.125 38.6953 31.125 40.1602 29.6602L55.1602 14.6602L55.1484 14.6484Z" fill="#209A9F"/>
</svg>
