<svg width="58" height="60" viewBox="0 0 58 60" fill="none" xmlns="http://www.w3.org/2000/svg">
<path d="M29.0001 0C29.5391 0 30.0782 0.117188 30.5704 0.339844L52.6368 9.70312C55.2149 10.793 57.1368 13.3359 57.1251 16.4062C57.0665 28.0312 52.2852 49.3008 32.0938 58.9688C30.1368 59.9062 27.8633 59.9062 25.9063 58.9688C5.7149 49.3008 0.933647 28.0312 0.875053 16.4062C0.863335 13.3359 2.78521 10.793 5.36333 9.70312L27.4415 0.339844C27.9219 0.117188 28.461 0 29.0001 0ZM29.0001 7.82813V52.125C45.1719 44.2969 49.5196 26.9648 49.6251 16.5703L29.0001 7.82813Z" fill="#209A9F"/>
</svg>
