<svg width="17" height="16" viewBox="0 0 17 16" fill="none" xmlns="http://www.w3.org/2000/svg">
<g clip-path="url(#clip0_183_2364)">
<path d="M2.5 14.5H3.5V16H2.5C1.39688 16 0.5 15.1031 0.5 14V2C0.5 0.896875 1.39688 0 2.5 0H7.67188C8.20312 0 8.7125 0.209375 9.0875 0.584375L11.9156 3.4125C12.2906 3.7875 12.5 4.29688 12.5 4.82812V9H11V5H8.5C7.94688 5 7.5 4.55312 7.5 4V1.5H2.5C2.225 1.5 2 1.725 2 2V14C2 14.275 2.225 14.5 2.5 14.5ZM6 11H7C7.96562 11 8.75 11.7844 8.75 12.75C8.75 13.7156 7.96562 14.5 7 14.5H6.5V15.5C6.5 15.775 6.275 16 6 16C5.725 16 5.5 15.775 5.5 15.5V14V11.5C5.5 11.225 5.725 11 6 11ZM7 13.5C7.41563 13.5 7.75 13.1656 7.75 12.75C7.75 12.3344 7.41563 12 7 12H6.5V13.5H7ZM10 11H11C11.8281 11 12.5 11.6719 12.5 12.5V14.5C12.5 15.3281 11.8281 16 11 16H10C9.725 16 9.5 15.775 9.5 15.5V11.5C9.5 11.225 9.725 11 10 11ZM11 15C11.275 15 11.5 14.775 11.5 14.5V12.5C11.5 12.225 11.275 12 11 12H10.5V15H11ZM13.5 11.5C13.5 11.225 13.725 11 14 11H15.5C15.775 11 16 11.225 16 11.5C16 11.775 15.775 12 15.5 12H14.5V13H15.5C15.775 13 16 13.225 16 13.5C16 13.775 15.775 14 15.5 14H14.5V15.5C14.5 15.775 14.275 16 14 16C13.725 16 13.5 15.775 13.5 15.5V13.5V11.5Z" fill="#209A9F"/>
</g>
<defs>
<clipPath id="clip0_183_2364">
<path d="M0.5 0H16.5V16H0.5V0Z" fill="white"/>
</clipPath>
</defs>
</svg>
