<svg width="15" height="20" viewBox="0 0 15 20" fill="none" xmlns="http://www.w3.org/2000/svg">
<g clip-path="url(#clip0_228_316)">
<g clip-path="url(#clip1_228_316)">
<path d="M0.625 2.5C0.625 1.12109 1.74609 0 3.125 0H11.875C13.2539 0 14.375 1.12109 14.375 2.5V17.5C14.375 18.8789 13.2539 20 11.875 20H3.125C1.74609 20 0.625 18.8789 0.625 17.5V2.5ZM5.625 17.5C5.625 17.8438 5.90625 18.125 6.25 18.125H8.75C9.09375 18.125 9.375 17.8438 9.375 17.5C9.375 17.1562 9.09375 16.875 8.75 16.875H6.25C5.90625 16.875 5.625 17.1562 5.625 17.5ZM11.875 2.5H3.125V15H11.875V2.5Z" fill="#F97316"/>
</g>
</g>
<defs>
<clipPath id="clip0_228_316">
<rect width="15" height="20" fill="white"/>
</clipPath>
<clipPath id="clip1_228_316">
<path d="M0 0H15V20H0V0Z" fill="white"/>
</clipPath>
</defs>
</svg>
