<svg width="17" height="14" viewBox="0 0 17 14" fill="none" xmlns="http://www.w3.org/2000/svg">
<path d="M14.6719 1.5C14.9469 1.5 15.1719 1.725 15.1719 2V11.9937L15.0156 11.7906L10.7656 6.29063C10.625 6.10625 10.4031 6 10.1719 6C9.94063 6 9.72188 6.10625 9.57812 6.29063L6.98438 9.64688L6.03125 8.3125C5.89062 8.11563 5.66563 8 5.42188 8C5.17812 8 4.95312 8.11563 4.8125 8.31563L2.3125 11.8156L2.17188 12.0094V12V2C2.17188 1.725 2.39688 1.5 2.67188 1.5H14.6719ZM2.67188 0C1.56875 0 0.671875 0.896875 0.671875 2V12C0.671875 13.1031 1.56875 14 2.67188 14H14.6719C15.775 14 16.6719 13.1031 16.6719 12V2C16.6719 0.896875 15.775 0 14.6719 0H2.67188ZM5.17188 6C5.36886 6 5.56391 5.9612 5.7459 5.88582C5.92789 5.81044 6.09325 5.69995 6.23254 5.56066C6.37182 5.42137 6.48231 5.25601 6.55769 5.07403C6.63308 4.89204 6.67188 4.69698 6.67188 4.5C6.67188 4.30302 6.63308 4.10796 6.55769 3.92597C6.48231 3.74399 6.37182 3.57863 6.23254 3.43934C6.09325 3.30005 5.92789 3.18956 5.7459 3.11418C5.56391 3.0388 5.36886 3 5.17188 3C4.97489 3 4.77984 3.0388 4.59785 3.11418C4.41586 3.18956 4.2505 3.30005 4.11121 3.43934C3.97193 3.57863 3.86144 3.74399 3.78606 3.92597C3.71067 4.10796 3.67188 4.30302 3.67188 4.5C3.67188 4.69698 3.71067 4.89204 3.78606 5.07403C3.86144 5.25601 3.97193 5.42137 4.11121 5.56066C4.2505 5.69995 4.41586 5.81044 4.59785 5.88582C4.77984 5.9612 4.97489 6 5.17188 6Z" fill="#6B7280"/>
</svg>
