<svg width="23" height="20" viewBox="0 0 23 20" fill="none" xmlns="http://www.w3.org/2000/svg">
<g clip-path="url(#clip0_239_2184)">
<path d="M11.875 9.375V0.648438C11.875 0.296875 12.1484 0 12.5 0C17.332 0 21.25 3.91797 21.25 8.75C21.25 9.10156 20.9531 9.375 20.6016 9.375H11.875ZM1.25 10.625C1.25 5.88672 4.76953 1.96484 9.33594 1.33984C9.69531 1.28906 10 1.57812 10 1.94141V11.25L16.1133 17.3633C16.375 17.625 16.3555 18.0547 16.0547 18.2656C14.5234 19.3594 12.6484 20 10.625 20C5.44922 20 1.25 15.8047 1.25 10.625ZM21.8125 11.25C22.1758 11.25 22.4609 11.5547 22.4141 11.9141C22.1133 14.0977 21.0625 16.0391 19.5273 17.4727C19.293 17.6914 18.9258 17.6758 18.6992 17.4453L12.5 11.25H21.8125Z" fill="#209A9F"/>
</g>
<defs>
<clipPath id="clip0_239_2184">
<path d="M0 0H22.5V20H0V0Z" fill="white"/>
</clipPath>
</defs>
</svg>
