<svg width="21" height="18" viewBox="0 0 21 18" fill="none" xmlns="http://www.w3.org/2000/svg">
<path d="M2.03125 0.25C2.72266 0.25 3.28125 0.808594 3.28125 1.5V14.625C3.28125 14.9688 3.5625 15.25 3.90625 15.25H19.5312C20.2227 15.25 20.7812 15.8086 20.7812 16.5C20.7812 17.1914 20.2227 17.75 19.5312 17.75H3.90625C2.17969 17.75 0.78125 16.3516 0.78125 14.625V1.5C0.78125 0.808594 1.33984 0.25 2.03125 0.25ZM5.78125 4C5.78125 3.30859 6.33984 2.75 7.03125 2.75H14.5312C15.2227 2.75 15.7812 3.30859 15.7812 4C15.7812 4.69141 15.2227 5.25 14.5312 5.25H7.03125C6.33984 5.25 5.78125 4.69141 5.78125 4ZM7.03125 6.5H12.0312C12.7227 6.5 13.2812 7.05859 13.2812 7.75C13.2812 8.44141 12.7227 9 12.0312 9H7.03125C6.33984 9 5.78125 8.44141 5.78125 7.75C5.78125 7.05859 6.33984 6.5 7.03125 6.5ZM7.03125 10.25H17.0312C17.7227 10.25 18.2812 10.8086 18.2812 11.5C18.2812 12.1914 17.7227 12.75 17.0312 12.75H7.03125C6.33984 12.75 5.78125 12.1914 5.78125 11.5C5.78125 10.8086 6.33984 10.25 7.03125 10.25Z" fill="#9CA3AF"/>
</svg>
