<svg width="20" height="21" viewBox="0 0 20 21" fill="none" xmlns="http://www.w3.org/2000/svg">
<path d="M19.7329 18.992L16.9079 16.167C18.4556 14.2741 19.2166 11.8588 19.0334 9.42056C18.8502 6.98235 17.7369 4.70782 15.9237 3.06745C14.1105 1.42707 11.7362 0.546357 9.29189 0.607473C6.84757 0.668589 4.52024 1.66686 2.7913 3.3958C1.06237 5.12473 0.0640964 7.45206 0.00298062 9.89639C-0.0581351 12.3407 0.822579 14.715 2.46295 16.5282C4.10333 18.3414 6.37786 19.4547 8.81607 19.6379C11.2543 19.8211 13.6696 19.0601 15.5625 17.5124L18.3875 20.3374C18.567 20.5107 18.8073 20.6066 19.0568 20.6045C19.3063 20.6023 19.5449 20.5022 19.7213 20.3258C19.8977 20.1494 19.9978 19.9107 20 19.6613C20.0021 19.4118 19.9062 19.1714 19.7329 18.992ZM9.54533 17.7617C8.03984 17.7617 6.56815 17.3153 5.31638 16.4789C4.06461 15.6425 3.08898 14.4537 2.51285 13.0628C1.93672 11.6719 1.78598 10.1414 2.07969 8.66481C2.3734 7.18825 3.09836 5.83194 4.1629 4.7674C5.22745 3.70285 6.58376 2.97789 8.06032 2.68418C9.53688 2.39048 11.0674 2.54122 12.4583 3.11734C13.8492 3.69347 15.038 4.66911 15.8744 5.92088C16.7108 7.17265 17.1572 8.64433 17.1572 10.1498C17.155 12.1679 16.3523 14.1027 14.9253 15.5297C13.4982 16.9568 11.5634 17.7595 9.54533 17.7617Z" fill="#AEAEAE"/>
</svg>
