<svg width="26" height="20" viewBox="0 0 26 20" fill="none" xmlns="http://www.w3.org/2000/svg">
<path d="M6.15625 0C6.98505 0 7.77991 0.32924 8.36596 0.915291C8.95201 1.50134 9.28125 2.2962 9.28125 3.125C9.28125 3.9538 8.95201 4.74866 8.36596 5.33471C7.77991 5.92076 6.98505 6.25 6.15625 6.25C5.32745 6.25 4.53259 5.92076 3.94654 5.33471C3.36049 4.74866 3.03125 3.9538 3.03125 3.125C3.03125 2.2962 3.36049 1.50134 3.94654 0.915291C4.53259 0.32924 5.32745 0 6.15625 0ZM20.5312 0C21.3601 0 22.1549 0.32924 22.741 0.915291C23.327 1.50134 23.6562 2.2962 23.6562 3.125C23.6562 3.9538 23.327 4.74866 22.741 5.33471C22.1549 5.92076 21.3601 6.25 20.5312 6.25C19.7024 6.25 18.9076 5.92076 18.3215 5.33471C17.7355 4.74866 17.4062 3.9538 17.4062 3.125C17.4062 2.2962 17.7355 1.50134 18.3215 0.915291C18.9076 0.32924 19.7024 0 20.5312 0ZM0.53125 11.668C0.53125 9.36719 2.39844 7.5 4.69922 7.5H6.36719C6.98828 7.5 7.57812 7.63672 8.10938 7.87891C8.05859 8.16016 8.03516 8.45312 8.03516 8.75C8.03516 10.2422 8.69141 11.582 9.72656 12.5C9.71875 12.5 9.71094 12.5 9.69922 12.5H1.36328C0.90625 12.5 0.53125 12.125 0.53125 11.668ZM16.3633 12.5C16.3555 12.5 16.3477 12.5 16.3359 12.5C17.375 11.582 18.0273 10.2422 18.0273 8.75C18.0273 8.45312 18 8.16406 17.9531 7.87891C18.4844 7.63281 19.0742 7.5 19.6953 7.5H21.3633C23.6641 7.5 25.5312 9.36719 25.5312 11.668C25.5312 12.1289 25.1562 12.5 24.6992 12.5H16.3633ZM9.28125 8.75C9.28125 7.75544 9.67634 6.80161 10.3796 6.09835C11.0829 5.39509 12.0367 5 13.0312 5C14.0258 5 14.9796 5.39509 15.6829 6.09835C16.3862 6.80161 16.7812 7.75544 16.7812 8.75C16.7812 9.74456 16.3862 10.6984 15.6829 11.4017C14.9796 12.1049 14.0258 12.5 13.0312 12.5C12.0367 12.5 11.0829 12.1049 10.3796 11.4017C9.67634 10.6984 9.28125 9.74456 9.28125 8.75ZM5.53125 18.957C5.53125 16.082 7.86328 13.75 10.7383 13.75H15.3242C18.1992 13.75 20.5312 16.082 20.5312 18.957C20.5312 19.5312 20.0664 20 19.4883 20H6.57422C6 20 5.53125 19.5352 5.53125 18.957Z" fill="#9CA3AF"/>
</svg>
