<svg width="18" height="20" viewBox="0 0 18 20" fill="none" xmlns="http://www.w3.org/2000/svg">
<path d="M8.9375 10C10.2636 10 11.5354 9.47322 12.473 8.53553C13.4107 7.59785 13.9375 6.32608 13.9375 5C13.9375 3.67392 13.4107 2.40215 12.473 1.46447C11.5354 0.526784 10.2636 0 8.9375 0C7.61142 0 6.33965 0.526784 5.40197 1.46447C4.46428 2.40215 3.9375 3.67392 3.9375 5C3.9375 6.32608 4.46428 7.59785 5.40197 8.53553C6.33965 9.47322 7.61142 10 8.9375 10ZM7.15234 11.875C3.30469 11.875 0.1875 14.9922 0.1875 18.8398C0.1875 19.4805 0.707031 20 1.34766 20H16.5273C17.168 20 17.6875 19.4805 17.6875 18.8398C17.6875 14.9922 14.5703 11.875 10.7227 11.875H7.15234Z" fill="#9CA3AF"/>
</svg>
