<svg width="13" height="20" viewBox="0 0 13 20" fill="none" xmlns="http://www.w3.org/2000/svg">
<g clip-path="url(#clip0_228_330)">
<g clip-path="url(#clip1_228_330)">
<path d="M6.25 1.875C6.25 1.37772 6.44754 0.900805 6.79917 0.549175C7.1508 0.197544 7.62772 0 8.125 0C8.62228 0 9.09919 0.197544 9.45083 0.549175C9.80246 0.900805 10 1.37772 10 1.875C10 2.37228 9.80246 2.84919 9.45083 3.20083C9.09919 3.55246 8.62228 3.75 8.125 3.75C7.62772 3.75 7.1508 3.55246 6.79917 3.20083C6.44754 2.84919 6.25 2.37228 6.25 1.875ZM4.94141 7.78516C4.90234 7.80078 4.86719 7.81641 4.82812 7.83203L4.51562 7.96875C3.875 8.25391 3.38281 8.79688 3.16016 9.46094L3.05859 9.76562C2.83984 10.4219 2.13281 10.7734 1.47656 10.5547C0.820312 10.3359 0.46875 9.62891 0.6875 8.97266L0.789063 8.66797C1.23438 7.33594 2.21875 6.25 3.5 5.67969L3.8125 5.54297C4.625 5.18359 5.50391 4.99609 6.39453 4.99609C8.13672 4.99609 9.70703 6.04297 10.375 7.64844L10.9766 9.08984L11.8125 9.50781C12.4297 9.81641 12.6797 10.5664 12.3711 11.1836C12.0625 11.8008 11.3125 12.0508 10.6953 11.7422L9.64844 11.2227C9.24609 11.0195 8.92969 10.6836 8.75781 10.2656L8.38281 9.36719L7.62891 11.9258L9.5625 14.0352C9.77344 14.2656 9.92188 14.543 10 14.8477L10.8984 18.4453C11.0664 19.1133 10.6602 19.793 9.98828 19.9609C9.31641 20.1289 8.64062 19.7227 8.47266 19.0508L7.61328 15.6094L4.85156 12.5977C4.27344 11.9688 4.05859 11.0898 4.27734 10.2656L4.9375 7.78516H4.94141ZM2.68359 15.5469L3.66016 13.1094C3.74219 13.2266 3.83594 13.3359 3.93359 13.4453L5.52344 15.1797L4.95703 16.5938C4.86328 16.8281 4.72266 17.043 4.54297 17.2227L2.13281 19.6328C1.64453 20.1211 0.851562 20.1211 0.363281 19.6328C-0.125 19.1445 -0.125 18.3516 0.363281 17.8633L2.68359 15.5469Z" fill="#F97316"/>
</g>
</g>
<defs>
<clipPath id="clip0_228_330">
<rect width="12.5" height="20" fill="white"/>
</clipPath>
<clipPath id="clip1_228_330">
<path d="M0 0H12.5V20H0V0Z" fill="white"/>
</clipPath>
</defs>
</svg>
